<?xml version="1.0" encoding="UTF-8"?>
<!DOCTYPE svg PUBLIC "-//W3C//DTD SVG 1.1//EN" "http://www.w3.org/Graphics/SVG/1.1/DTD/svg11.dtd">
<svg xmlns="http://www.w3.org/2000/svg" version="1.1" width="100px" height="100px" style="shape-rendering:geometricPrecision; text-rendering:geometricPrecision; image-rendering:optimizeQuality; fill-rule:evenodd; clip-rule:evenodd" xmlns:xlink="http://www.w3.org/1999/xlink">
<g><path style="opacity:1" fill="#e6531f" d="M 39.5,-0.5 C 46.1667,-0.5 52.8333,-0.5 59.5,-0.5C 80.5,5.16667 93.8333,18.5 99.5,39.5C 99.5,46.1667 99.5,52.8333 99.5,59.5C 93.8333,80.5 80.5,93.8333 59.5,99.5C 52.8333,99.5 46.1667,99.5 39.5,99.5C 18.5,93.8333 5.16667,80.5 -0.5,59.5C -0.5,52.8333 -0.5,46.1667 -0.5,39.5C 5.16667,18.5 18.5,5.16667 39.5,-0.5 Z"/></g>
<g><path style="opacity:1" fill="#fefffe" d="M 68.5,73.5 C 70.2838,73.1075 71.9505,72.4408 73.5,71.5C 71.8796,78.2884 67.8796,83.1217 61.5,86C 39.2873,90.8116 24.1206,82.6449 16,61.5C 12.6252,53.1231 10.4585,44.4564 9.5,35.5C 7.5,35.5 5.5,35.5 3.5,35.5C 3.21478,33.712 3.54811,32.0453 4.5,30.5C 7.08415,29.6072 9.75081,29.2739 12.5,29.5C 13.0245,48.5924 19.6911,65.0924 32.5,79C 41.0429,83.1826 50.0429,84.5159 59.5,83C 64.0787,81.2565 67.0787,78.0898 68.5,73.5 Z"/></g>
<g><path style="opacity:1" fill="#fefffe" d="M 78.5,56.5 C 78.6347,54.4458 77.968,52.7791 76.5,51.5C 80.4702,45.8679 82.4702,39.5345 82.5,32.5C 86.5,32.5 90.5,32.5 94.5,32.5C 94.1667,34.5 93.8333,36.5 93.5,38.5C 90.7276,38.22 88.2276,38.8866 86,40.5C 83.7249,46.0447 81.2249,51.3781 78.5,56.5 Z"/></g>
<g><path style="opacity:1" fill="#000000" d="M 76.5,51.5 C 77.968,52.7791 78.6347,54.4458 78.5,56.5C 78.1667,57.8333 77.8333,59.1667 77.5,60.5C 76.609,61.1098 75.609,61.4431 74.5,61.5C 72.7,60.3948 71.5334,61.0614 71,63.5C 70.2274,65.3524 70.7274,66.6857 72.5,67.5C 73.2341,68.7079 73.5674,70.0413 73.5,71.5C 71.9505,72.4408 70.2838,73.1075 68.5,73.5C 63.9881,72.9349 59.6547,71.1015 55.5,68C 54.4464,66.6124 54.2797,65.1124 55,63.5C 57.958,53.6773 64.6247,49.0107 75,49.5C 76.0299,49.8361 76.5299,50.5028 76.5,51.5 Z"/></g>
<g><path style="opacity:1" fill="#e8541f" d="M 65.5,54.5 C 66.0967,54.7352 66.4301,55.2352 66.5,56C 65.1228,59.967 63.4561,63.8003 61.5,67.5C 60.1667,66.8333 59.1667,65.8333 58.5,64.5C 59.8845,60.3609 62.2178,57.0276 65.5,54.5 Z"/></g>
<g><path style="opacity:1" fill="#e8541f" d="M 74.5,61.5 C 73.6373,63.4214 72.9707,65.4214 72.5,67.5C 70.7274,66.6857 70.2274,65.3524 71,63.5C 71.5334,61.0614 72.7,60.3948 74.5,61.5 Z"/></g>
<g><path style="opacity:1" fill="#fefffe" d="M 77.5,60.5 C 77.323,64.7076 75.9897,68.3743 73.5,71.5C 73.5674,70.0413 73.2341,68.7079 72.5,67.5C 72.9707,65.4214 73.6373,63.4214 74.5,61.5C 75.609,61.4431 76.609,61.1098 77.5,60.5 Z"/></g>
<g><path style="opacity:1" fill="#000000" d="M 51.5,65.5 C 52.6878,67.4959 52.0211,68.3293 49.5,68C 50.3805,67.2917 51.0472,66.4584 51.5,65.5 Z"/></g>
<g><path style="opacity:1" fill="#000000" d="M 52.5,69.5 C 53.2891,69.7828 53.9558,70.2828 54.5,71C 54.0116,73.1761 53.0116,75.0094 51.5,76.5C 50.895,75.4126 51.2283,74.246 52.5,73C 51.3157,71.8545 51.3157,70.6879 52.5,69.5 Z"/></g>
<g><path style="opacity:1" fill="#000000" d="M 55.5,70.5 C 58.0009,70.5109 58.1676,71.1776 56,72.5C 55.5357,71.9056 55.369,71.2389 55.5,70.5 Z"/></g>
<g><path style="opacity:1" fill="#000000" d="M 58.5,72.5 C 60.8418,72.7748 60.8418,73.6081 58.5,75C 57.2411,75.9819 55.9078,76.3152 54.5,76C 55.7305,74.5952 57.0639,73.4286 58.5,72.5 Z"/></g>
<g><path style="opacity:1" fill="#000000" d="M 60.5,75.5 C 62.9752,75.7467 62.9752,76.4134 60.5,77.5C 59.537,77.0302 59.537,76.3635 60.5,75.5 Z"/></g>
</svg>
